<svg width="20" height="15" viewBox="0 0 20 15" fill="none" xmlns="http://www.w3.org/2000/svg">
<path fill-rule="evenodd" clip-rule="evenodd" d="M19.8135 7.59749L18.6768 6.13345L16.8277 2.45586C16.6908 2.18394 16.4124 2.01226 16.1079 2.01226H13.6598V1.58326C13.6598 1.13834 13.2992 0.777771 12.8543 0.777771L2.55643 0.777771C2.11151 0.777771 1.75094 1.13839 1.75094 1.58326C1.75094 2.02814 2.11155 2.38875 2.55643 2.38875L12.0488 2.38875L12.0488 6.52621C12.0488 6.97113 12.4094 7.3317 12.8543 7.3317L17.5676 7.3317L18.3717 8.36747L18.3717 11.3021H17.5363C17.2007 10.2181 16.1891 9.42824 14.9955 9.42824C13.8024 9.42824 12.7911 10.2176 12.4551 11.301H9.09187C8.75584 10.2176 7.74455 9.42824 6.55142 9.42824C5.3583 9.42824 4.347 10.2176 4.01098 11.301H2.55643C2.11151 11.301 1.75094 11.6616 1.75094 12.1065C1.75094 12.5514 2.11156 12.9119 2.55643 12.9119H4.02314C4.37085 13.9756 5.37233 14.7465 6.55142 14.7465C7.7305 14.7465 8.73197 13.9757 9.07969 12.912H12.4673C12.815 13.9757 13.8164 14.7465 14.9955 14.7465C16.1744 14.7465 17.1754 13.9762 17.5234 12.9131H19.1772C19.6221 12.9131 19.9826 12.5525 19.9827 12.1076L19.9827 8.09153C19.9827 7.9127 19.923 7.7387 19.8135 7.59749ZM16.6657 5.72072H13.6598L13.6598 3.62328H15.6112L16.6657 5.72072ZM6.55142 13.1355C5.98422 13.1355 5.52063 12.6824 5.50379 12.1192C5.50381 12.1177 5.50383 12.1161 5.50385 12.1146C5.50387 12.1119 5.50389 12.1092 5.50389 12.1065C5.50389 12.0966 5.50371 12.0869 5.50336 12.0771C5.50886 11.504 5.97697 11.0393 6.55142 11.0393C7.12912 11.0393 7.59954 11.5095 7.59954 12.0874C7.59954 12.6653 7.1293 13.1355 6.55142 13.1355ZM14.9955 13.1355C14.4177 13.1355 13.9474 12.6652 13.9474 12.0874C13.9474 11.5095 14.4177 11.0393 14.9955 11.0393C15.5734 11.0393 16.0436 11.5095 16.0436 12.0874C16.0436 12.6653 15.5734 13.1355 14.9955 13.1355ZM4.65722 8.16874H1.81498C1.37006 8.16874 1.0095 8.52936 1.0095 8.97423C1.0095 9.41915 1.37012 9.77972 1.81498 9.77972H4.65718C5.10209 9.77972 5.46266 9.41909 5.46267 8.97423C5.46271 8.52934 5.10208 8.16874 4.65722 8.16874ZM6.07801 5.73993L0.805489 5.73993C0.360606 5.73993 0 6.10055 0 6.54546C0 6.99038 0.360621 7.35095 0.805489 7.35095L6.07801 7.35095C6.52293 7.35095 6.8835 6.99033 6.8835 6.54546C6.8835 6.10061 6.52295 5.73993 6.07801 5.73993ZM7.08753 3.30978L1.81501 3.30978C1.37008 3.30978 1.00952 3.6704 1.00952 4.11527C1.00952 4.56019 1.37014 4.92076 1.81501 4.92076L7.08753 4.92076C7.53244 4.92076 7.89301 4.56013 7.89302 4.11527C7.89305 3.67038 7.53242 3.30978 7.08753 3.30978Z" fill="#262626"/>
</svg>
