<svg width="16" height="16" viewBox="0 0 16 16" fill="none" xmlns="http://www.w3.org/2000/svg">
<path d="M9.15615 8.00102L15.0155 14.9854C15.1137 15.1015 15.0311 15.2778 14.8794 15.2778H13.0981C12.9932 15.2778 12.8928 15.2309 12.8236 15.1506L7.99097 9.38941L3.15838 15.1506C3.09142 15.2309 2.99097 15.2778 2.88383 15.2778H1.10258C0.950793 15.2778 0.868203 15.1015 0.966418 14.9854L6.82579 8.00102L0.966418 1.01664C0.944417 0.990767 0.930302 0.959126 0.92575 0.92547C0.921197 0.891815 0.926397 0.857561 0.940733 0.826774C0.955069 0.795986 0.977939 0.769958 1.00663 0.751782C1.03532 0.733605 1.06862 0.724043 1.10258 0.72423H2.88383C2.98874 0.72423 3.08919 0.771105 3.15838 0.851462L7.99097 6.61262L12.8236 0.851462C12.8905 0.771105 12.991 0.72423 13.0981 0.72423H14.8794C15.0311 0.72423 15.1137 0.900568 15.0155 1.01664L9.15615 8.00102Z" fill="black"/>
</svg>
