<svg width="20" height="20" viewBox="0 0 20 20" fill="none" xmlns="http://www.w3.org/2000/svg">
<path d="M19.757 18.5785L14.9458 13.7669C16.316 12.0936 16.9905 9.95762 16.8297 7.80087C16.6689 5.64412 15.6852 3.63173 14.0822 2.18016C12.4791 0.728595 10.3794 -0.0510425 8.21753 0.00259486C6.05568 0.0562322 3.9972 0.939039 2.46807 2.46832C0.938944 3.9976 0.0562266 6.0563 0.0025946 8.21836C-0.0510374 10.3804 0.728521 12.4804 2.17994 14.0836C3.63137 15.6868 5.64355 16.6706 7.80008 16.8314C9.95661 16.9922 12.0924 16.3176 13.7655 14.9474L18.5766 19.7549C18.6538 19.8324 18.7456 19.894 18.8466 19.936C18.9476 19.9781 19.0559 19.9998 19.1653 20C19.2748 20.0002 19.3832 19.9788 19.4843 19.9371C19.5855 19.8954 19.6774 19.8342 19.7549 19.7569C19.8324 19.6797 19.894 19.5879 19.936 19.4869C19.9781 19.3859 19.9998 19.2775 20 19.1681C20.0002 19.0587 19.9788 18.9503 19.9371 18.8491C19.8954 18.7479 19.8342 18.656 19.757 18.5785ZM8.42392 15.1759C7.08757 15.1754 5.78137 14.7786 4.67049 14.0357C3.55961 13.2928 2.69395 12.2372 2.18295 11.0023C1.67196 9.76734 1.53859 8.40862 1.79971 7.0979C2.06083 5.78717 2.70471 4.58332 3.64994 3.63857C4.59516 2.69381 5.79928 2.05059 7.11002 1.79022C8.42077 1.52986 9.77927 1.66405 11.0138 2.17584C12.2483 2.68762 13.3033 3.554 14.0454 4.66544C14.7876 5.77687 15.1835 7.08344 15.1832 8.41992C15.1811 10.2118 14.4681 11.9295 13.2009 13.1962C11.9336 14.4628 10.2156 15.1748 8.42392 15.1759Z" fill="#11006F"/>
</svg>
