<svg width="41" height="41" viewBox="0 0 41 41" fill="none" xmlns="http://www.w3.org/2000/svg">
<rect x="1.75" y="1.31836" width="37.5" height="37.5" rx="6.75" fill="#FEECC7" stroke="#FCAF17" stroke-width="2.5"/>
<path d="M28.9485 25.4991L21.0779 14.6486C20.7922 14.2558 20.2074 14.2558 19.9239 14.6486L12.0512 25.4991C12.0318 25.5258 12.0202 25.5573 12.0176 25.5902C12.0151 25.6231 12.0217 25.656 12.0367 25.6854C12.0517 25.7147 12.0746 25.7393 12.1027 25.7565C12.1309 25.7737 12.1633 25.7827 12.1962 25.7826H13.8704C13.9842 25.7826 14.0913 25.7268 14.1583 25.6353L20.4998 16.8942L26.8413 25.6353C26.9083 25.7268 27.0154 25.7826 27.1293 25.7826H27.9663H28.8034C28.9485 25.7826 29.0333 25.6174 28.9485 25.4991Z" fill="#FCAF17"/>
</svg>
