<svg width="18" height="18" viewBox="0 0 18 18" fill="none" xmlns="http://www.w3.org/2000/svg">
<path d="M1.26529 14.6133C1.68636 13.616 2.29741 12.71 3.06439 11.9459C3.82905 11.1797 4.73487 10.5687 5.73181 10.1468C5.74074 10.1424 5.74966 10.1401 5.75859 10.1357C4.36797 9.1312 3.46395 7.49504 3.46395 5.64906C3.46395 2.59102 5.94163 0.113342 8.99966 0.113342C12.0577 0.113342 14.5354 2.59102 14.5354 5.64906C14.5354 7.49504 13.6314 9.1312 12.2407 10.1379C12.2497 10.1424 12.2586 10.1446 12.2675 10.1491C13.2675 10.5709 14.1648 11.1758 14.9349 11.9482C15.7012 12.7128 16.3122 13.6186 16.734 14.6156C17.1485 15.5916 17.372 16.638 17.3925 17.6982C17.3931 17.722 17.3889 17.7457 17.3802 17.7679C17.3715 17.7901 17.3585 17.8103 17.3418 17.8273C17.3252 17.8444 17.3053 17.8579 17.2833 17.8672C17.2614 17.8764 17.2378 17.8812 17.214 17.8812H15.8747C15.7765 17.8812 15.6983 17.8031 15.6961 17.7071C15.6515 15.9839 14.9595 14.37 13.7363 13.1468C12.4706 11.8812 10.7898 11.1848 8.99966 11.1848C7.20949 11.1848 5.52868 11.8812 4.26306 13.1468C3.03984 14.37 2.34788 15.9839 2.30324 17.7071C2.301 17.8053 2.22288 17.8812 2.12466 17.8812H0.785378C0.761547 17.8812 0.737955 17.8764 0.715994 17.8672C0.694033 17.8579 0.674145 17.8444 0.657503 17.8273C0.640862 17.8103 0.627804 17.7901 0.619097 17.7679C0.61039 17.7457 0.606211 17.722 0.606806 17.6982C0.629128 16.6312 0.850109 15.5933 1.26529 14.6133ZM8.99966 9.48834C10.0242 9.48834 10.9885 9.08879 11.714 8.36334C12.4394 7.6379 12.839 6.67361 12.839 5.64906C12.839 4.6245 12.4394 3.66022 11.714 2.93477C10.9885 2.20932 10.0242 1.80977 8.99966 1.80977C7.97511 1.80977 7.01083 2.20932 6.28538 2.93477C5.55993 3.66022 5.16038 4.6245 5.16038 5.64906C5.16038 6.67361 5.55993 7.6379 6.28538 8.36334C7.01083 9.08879 7.97511 9.48834 8.99966 9.48834Z" fill="#262626"/>
</svg>
